<svg width="368" height="368" viewBox="0 0 368 368" fill="white" xmlns="http://www.w3.org/2000/svg">
    <path d="M7.02936 327.03C-2.34312 336.403 -2.34312 351.597 7.02936 360.97C16.4018 370.342 31.598 370.342 40.9705 360.97L7.02936 327.03ZM200.97 200.97C210.342 191.597 210.342 176.403 200.97 167.03C191.597 157.658 176.403 157.658 167.03 167.03L200.97 200.97ZM167.03 167.03C157.658 176.403 157.658 191.597 167.03 200.97C176.403 210.342 191.597 210.342 200.97 200.97L167.03 167.03ZM360.97 40.9705C370.342 31.598 370.342 16.4018 360.97 7.02936C351.597 -2.34312 336.403 -2.34312 327.03 7.02936L360.97 40.9705ZM200.97 167.03C191.597 157.658 176.403 157.658 167.03 167.03C157.658 176.403 157.658 191.597 167.03 200.97L200.97 167.03ZM327.03 360.97C336.403 370.342 351.597 370.342 360.97 360.97C370.342 351.597 370.342 336.403 360.97 327.03L327.03 360.97ZM167.03 200.97C176.403 210.342 191.597 210.342 200.97 200.97C210.342 191.597 210.342 176.403 200.97 167.03L167.03 200.97ZM40.9705 7.02936C31.598 -2.34312 16.4018 -2.34312 7.02936 7.02936C-2.34312 16.4018 -2.34312 31.598 7.02936 40.9705L40.9705 7.02936ZM40.9705 360.97L200.97 200.97L167.03 167.03L7.02936 327.03L40.9705 360.97ZM200.97 200.97L360.97 40.9705L327.03 7.02936L167.03 167.03L200.97 200.97ZM167.03 200.97L327.03 360.97L360.97 327.03L200.97 167.03L167.03 200.97ZM200.97 167.03L40.9705 7.02936L7.02936 40.9705L167.03 200.97L200.97 167.03Z"/>
</svg>
